<svg width="363" height="56" viewBox="0 0 363 56" fill="none" xmlns="http://www.w3.org/2000/svg">
<rect width="363" height="56" rx="4" fill="#FFB706"/>
<path d="M0 4C0 1.79086 1.79086 0 4 0H11.5V56H4C1.79086 56 0 54.2091 0 52V4Z" fill="#FC8500"/>
<path d="M28.0892 39V17.8774H34.4721L38.3047 32.2857L42.0941 17.8774H48.4914V39H44.5291V22.3728L40.3363 39H36.2299L32.0515 22.3728V39H28.0892Z" fill="#FC8500"/>
<path d="M52.6986 21.6236V17.8774H56.7473V21.6236H52.6986ZM52.6986 39V23.6984H56.7473V39H52.6986Z" fill="#FC8500"/>
<path d="M74.2534 28.2226L70.2623 28.943C70.1278 28.1458 69.8204 27.5454 69.3402 27.142C68.8695 26.7385 68.2547 26.5368 67.4959 26.5368C66.4873 26.5368 65.6805 26.8874 65.0753 27.5886C64.4798 28.2802 64.182 29.4425 64.182 31.0754C64.182 32.8909 64.4846 34.1732 65.0897 34.9225C65.7045 35.6717 66.5257 36.0463 67.5535 36.0463C68.322 36.0463 68.9511 35.8302 69.441 35.3979C69.9309 34.9561 70.2767 34.202 70.4784 33.1358L74.4551 33.813C74.0421 35.6381 73.2496 37.0165 72.0777 37.9482C70.9059 38.8799 69.3354 39.3458 67.3662 39.3458C65.1281 39.3458 63.3415 38.6398 62.0063 37.2278C60.6808 35.8158 60.018 33.861 60.018 31.3636C60.018 28.8374 60.6856 26.873 62.0207 25.4706C63.3559 24.0586 65.1618 23.3526 67.4383 23.3526C69.3017 23.3526 70.781 23.756 71.876 24.5629C72.9807 25.3602 73.7731 26.5801 74.2534 28.2226Z" fill="#FC8500"/>
<path d="M81.2126 39H77.1639V23.6984H80.9244V25.874C81.568 24.8463 82.1443 24.1691 82.6534 23.8425C83.1721 23.5159 83.7581 23.3526 84.4112 23.3526C85.3334 23.3526 86.2219 23.6071 87.0768 24.1162L85.8233 27.6463C85.1413 27.2044 84.5073 26.9835 83.9214 26.9835C83.3546 26.9835 82.8744 27.142 82.4805 27.459C82.0867 27.7663 81.7745 28.3283 81.544 29.1447C81.3231 29.9612 81.2126 31.671 81.2126 34.2741V39Z" fill="#FC8500"/>
<path d="M87.8981 31.1331C87.8981 29.7883 88.2294 28.4868 88.8922 27.2284C89.555 25.9701 90.4915 25.0095 91.7018 24.3468C92.9217 23.684 94.2809 23.3526 95.7794 23.3526C98.0943 23.3526 99.9914 24.1066 101.471 25.6147C102.95 27.1132 103.69 29.0103 103.69 31.306C103.69 33.6209 102.94 35.542 101.442 37.0693C99.953 38.587 98.0751 39.3458 95.8082 39.3458C94.4058 39.3458 93.0658 39.0288 91.7883 38.3949C90.5204 37.7609 89.555 36.834 88.8922 35.6141C88.2294 34.3845 87.8981 32.8909 87.8981 31.1331ZM92.0476 31.3492C92.0476 32.8669 92.4079 34.0291 93.1283 34.836C93.8487 35.6429 94.7372 36.0463 95.7938 36.0463C96.8504 36.0463 97.7341 35.6429 98.4449 34.836C99.1653 34.0291 99.5256 32.8573 99.5256 31.3204C99.5256 29.8219 99.1653 28.6693 98.4449 27.8624C97.7341 27.0555 96.8504 26.6521 95.7938 26.6521C94.7372 26.6521 93.8487 27.0555 93.1283 27.8624C92.4079 28.6693 92.0476 29.8315 92.0476 31.3492Z" fill="#FC8500"/>
<path d="M107.018 39V18.0503H111.283V35.4412H121.887V39H107.018Z" fill="#FC8500"/>
<path d="M127.939 28.3667L124.265 27.7039C124.678 26.2246 125.388 25.1296 126.397 24.4188C127.406 23.708 128.904 23.3526 130.892 23.3526C132.698 23.3526 134.043 23.5687 134.927 24.001C135.81 24.4236 136.43 24.9663 136.785 25.6291C137.15 26.2823 137.333 27.4878 137.333 29.2456L137.29 33.9715C137.29 35.3163 137.352 36.3105 137.477 36.954C137.611 37.588 137.856 38.27 138.212 39H134.206C134.101 38.7311 133.971 38.3324 133.817 37.8041C133.75 37.564 133.702 37.4055 133.673 37.3286C132.982 38.001 132.242 38.5053 131.454 38.8415C130.667 39.1777 129.826 39.3458 128.933 39.3458C127.358 39.3458 126.114 38.9184 125.201 38.0635C124.298 37.2086 123.847 36.128 123.847 34.8216C123.847 33.9571 124.053 33.1887 124.466 32.5163C124.879 31.8343 125.456 31.3156 126.195 30.9602C126.945 30.5952 128.02 30.2782 129.423 30.0092C131.315 29.6538 132.626 29.3224 133.356 29.0151V28.6116C133.356 27.8336 133.164 27.2813 132.78 26.9547C132.396 26.6185 131.67 26.4504 130.604 26.4504C129.884 26.4504 129.322 26.5945 128.918 26.8826C128.515 27.1612 128.188 27.6559 127.939 28.3667ZM133.356 31.6518C132.838 31.8247 132.016 32.0312 130.892 32.2713C129.769 32.5115 129.034 32.7468 128.688 32.9773C128.16 33.352 127.895 33.8274 127.895 34.4038C127.895 34.9705 128.107 35.4604 128.529 35.8734C128.952 36.2864 129.49 36.493 130.143 36.493C130.873 36.493 131.57 36.2528 132.232 35.7725C132.722 35.4075 133.044 34.9609 133.198 34.4326C133.303 34.0868 133.356 33.4288 133.356 32.4586V31.6518Z" fill="#FC8500"/>
<path d="M155.257 39H151.208V31.1907C151.208 29.5386 151.122 28.4723 150.949 27.9921C150.776 27.5022 150.493 27.1228 150.099 26.8538C149.714 26.5849 149.249 26.4504 148.701 26.4504C148 26.4504 147.371 26.6425 146.814 27.0267C146.256 27.4109 145.872 27.92 145.661 28.554C145.459 29.188 145.358 30.3598 145.358 32.0696V39H141.31V23.6984H145.07V25.9461C146.405 24.2171 148.086 23.3526 150.113 23.3526C151.006 23.3526 151.823 23.5159 152.562 23.8425C153.302 24.1595 153.859 24.5677 154.234 25.0672C154.618 25.5667 154.882 26.1334 155.026 26.7674C155.18 27.4013 155.257 28.309 155.257 29.4905V39Z" fill="#FC8500"/>
<path d="M159.003 40.0086L163.628 40.5705C163.705 41.1084 163.883 41.4782 164.161 41.68C164.545 41.9681 165.151 42.1122 165.977 42.1122C167.033 42.1122 167.826 41.9537 168.354 41.6367C168.709 41.4254 168.978 41.0844 169.161 40.6137C169.286 40.2775 169.348 39.658 169.348 38.7551V36.5218C168.138 38.1739 166.611 39 164.766 39C162.711 39 161.083 38.1307 159.882 36.3921C158.941 35.0185 158.47 33.3087 158.47 31.2628C158.47 28.6981 159.085 26.7385 160.314 25.3842C161.553 24.0298 163.09 23.3526 164.925 23.3526C166.817 23.3526 168.378 24.1835 169.608 25.8452V23.6984H173.397V37.4295C173.397 39.2353 173.248 40.5849 172.95 41.4782C172.652 42.3715 172.235 43.0728 171.697 43.5818C171.159 44.0909 170.438 44.4896 169.535 44.7777C168.642 45.0659 167.509 45.21 166.135 45.21C163.542 45.21 161.702 44.7633 160.617 43.87C159.531 42.9863 158.989 41.8625 158.989 40.4985C158.989 40.364 158.993 40.2007 159.003 40.0086ZM162.619 31.0322C162.619 32.6556 162.932 33.8466 163.556 34.6055C164.19 35.3547 164.968 35.7293 165.89 35.7293C166.88 35.7293 167.715 35.3451 168.397 34.5767C169.079 33.7986 169.42 32.6508 169.42 31.1331C169.42 29.5482 169.094 28.3715 168.44 27.603C167.787 26.8346 166.961 26.4504 165.962 26.4504C164.992 26.4504 164.19 26.8298 163.556 27.5886C162.932 28.3379 162.619 29.4857 162.619 31.0322Z" fill="#FC8500"/>
<path d="M27.0892 38V16.8774H33.4721L37.3047 31.2857L41.0941 16.8774H47.4914V38H43.5291V21.3728L39.3363 38H35.2299L31.0515 21.3728V38H27.0892Z" fill="#023047"/>
<path d="M51.6986 20.6236V16.8774H55.7473V20.6236H51.6986ZM51.6986 38V22.6984H55.7473V38H51.6986Z" fill="#023047"/>
<path d="M73.2534 27.2226L69.2623 27.943C69.1278 27.1458 68.8204 26.5454 68.3402 26.142C67.8695 25.7385 67.2547 25.5368 66.4959 25.5368C65.4873 25.5368 64.6805 25.8874 64.0753 26.5886C63.4798 27.2802 63.182 28.4425 63.182 30.0754C63.182 31.8909 63.4846 33.1732 64.0897 33.9225C64.7045 34.6717 65.5257 35.0463 66.5535 35.0463C67.322 35.0463 67.9511 34.8302 68.441 34.3979C68.9309 33.9561 69.2767 33.202 69.4784 32.1358L73.4551 32.813C73.0421 34.6381 72.2496 36.0165 71.0777 36.9482C69.9059 37.8799 68.3354 38.3458 66.3662 38.3458C64.1281 38.3458 62.3415 37.6398 61.0063 36.2278C59.6808 34.8158 59.018 32.861 59.018 30.3636C59.018 27.8374 59.6856 25.873 61.0207 24.4706C62.3559 23.0586 64.1618 22.3526 66.4383 22.3526C68.3017 22.3526 69.781 22.756 70.876 23.5629C71.9807 24.3602 72.7731 25.5801 73.2534 27.2226Z" fill="#023047"/>
<path d="M80.2126 38H76.1639V22.6984H79.9244V24.874C80.568 23.8463 81.1443 23.1691 81.6534 22.8425C82.1721 22.5159 82.7581 22.3526 83.4112 22.3526C84.3334 22.3526 85.2219 22.6071 86.0768 23.1162L84.8233 26.6463C84.1413 26.2044 83.5073 25.9835 82.9214 25.9835C82.3546 25.9835 81.8744 26.142 81.4805 26.459C81.0867 26.7663 80.7745 27.3283 80.544 28.1447C80.3231 28.9612 80.2126 30.671 80.2126 33.2741V38Z" fill="#023047"/>
<path d="M86.8981 30.1331C86.8981 28.7883 87.2294 27.4868 87.8922 26.2284C88.555 24.9701 89.4915 24.0095 90.7018 23.3468C91.9217 22.684 93.2809 22.3526 94.7794 22.3526C97.0943 22.3526 98.9914 23.1066 100.471 24.6147C101.95 26.1132 102.69 28.0103 102.69 30.306C102.69 32.6209 101.94 34.542 100.442 36.0693C98.953 37.587 97.0751 38.3458 94.8082 38.3458C93.4058 38.3458 92.0658 38.0288 90.7883 37.3949C89.5204 36.7609 88.555 35.834 87.8922 34.6141C87.2294 33.3845 86.8981 31.8909 86.8981 30.1331ZM91.0476 30.3492C91.0476 31.8669 91.4079 33.0291 92.1283 33.836C92.8487 34.6429 93.7372 35.0463 94.7938 35.0463C95.8504 35.0463 96.7341 34.6429 97.4449 33.836C98.1653 33.0291 98.5256 31.8573 98.5256 30.3204C98.5256 28.8219 98.1653 27.6693 97.4449 26.8624C96.7341 26.0555 95.8504 25.6521 94.7938 25.6521C93.7372 25.6521 92.8487 26.0555 92.1283 26.8624C91.4079 27.6693 91.0476 28.8315 91.0476 30.3492Z" fill="#023047"/>
<path d="M106.018 38V17.0503H110.283V34.4412H120.887V38H106.018Z" fill="#023047"/>
<path d="M126.939 27.3667L123.265 26.7039C123.678 25.2246 124.388 24.1296 125.397 23.4188C126.406 22.708 127.904 22.3526 129.892 22.3526C131.698 22.3526 133.043 22.5687 133.927 23.001C134.81 23.4236 135.43 23.9663 135.785 24.6291C136.15 25.2823 136.333 26.4878 136.333 28.2456L136.29 32.9715C136.29 34.3163 136.352 35.3105 136.477 35.954C136.611 36.588 136.856 37.27 137.212 38H133.206C133.101 37.7311 132.971 37.3324 132.817 36.8041C132.75 36.564 132.702 36.4055 132.673 36.3286C131.982 37.001 131.242 37.5053 130.454 37.8415C129.667 38.1777 128.826 38.3458 127.933 38.3458C126.358 38.3458 125.114 37.9184 124.201 37.0635C123.298 36.2086 122.847 35.128 122.847 33.8216C122.847 32.9571 123.053 32.1887 123.466 31.5163C123.879 30.8343 124.456 30.3156 125.195 29.9602C125.945 29.5952 127.02 29.2782 128.423 29.0092C130.315 28.6538 131.626 28.3224 132.356 28.0151V27.6116C132.356 26.8336 132.164 26.2813 131.78 25.9547C131.396 25.6185 130.67 25.4504 129.604 25.4504C128.884 25.4504 128.322 25.5945 127.918 25.8826C127.515 26.1612 127.188 26.6559 126.939 27.3667ZM132.356 30.6518C131.838 30.8247 131.016 31.0312 129.892 31.2713C128.769 31.5115 128.034 31.7468 127.688 31.9773C127.16 32.352 126.895 32.8274 126.895 33.4038C126.895 33.9705 127.107 34.4604 127.529 34.8734C127.952 35.2864 128.49 35.493 129.143 35.493C129.873 35.493 130.57 35.2528 131.232 34.7725C131.722 34.4075 132.044 33.9609 132.198 33.4326C132.303 33.0868 132.356 32.4288 132.356 31.4586V30.6518Z" fill="#023047"/>
<path d="M154.257 38H150.208V30.1907C150.208 28.5386 150.122 27.4723 149.949 26.9921C149.776 26.5022 149.493 26.1228 149.099 25.8538C148.714 25.5849 148.249 25.4504 147.701 25.4504C147 25.4504 146.371 25.6425 145.814 26.0267C145.256 26.4109 144.872 26.92 144.661 27.554C144.459 28.188 144.358 29.3598 144.358 31.0696V38H140.31V22.6984H144.07V24.9461C145.405 23.2171 147.086 22.3526 149.113 22.3526C150.006 22.3526 150.823 22.5159 151.562 22.8425C152.302 23.1595 152.859 23.5677 153.234 24.0672C153.618 24.5667 153.882 25.1334 154.026 25.7674C154.18 26.4013 154.257 27.309 154.257 28.4905V38Z" fill="#023047"/>
<path d="M158.003 39.0086L162.628 39.5705C162.705 40.1084 162.883 40.4782 163.161 40.68C163.545 40.9681 164.151 41.1122 164.977 41.1122C166.033 41.1122 166.826 40.9537 167.354 40.6367C167.709 40.4254 167.978 40.0844 168.161 39.6137C168.286 39.2775 168.348 38.658 168.348 37.7551V35.5218C167.138 37.1739 165.611 38 163.766 38C161.711 38 160.083 37.1307 158.882 35.3921C157.941 34.0185 157.47 32.3087 157.47 30.2628C157.47 27.6981 158.085 25.7385 159.314 24.3842C160.553 23.0298 162.09 22.3526 163.925 22.3526C165.817 22.3526 167.378 23.1835 168.608 24.8452V22.6984H172.397V36.4295C172.397 38.2353 172.248 39.5849 171.95 40.4782C171.652 41.3715 171.235 42.0728 170.697 42.5818C170.159 43.0909 169.438 43.4896 168.535 43.7777C167.642 44.0659 166.509 44.21 165.135 44.21C162.542 44.21 160.702 43.7633 159.617 42.87C158.531 41.9863 157.989 40.8625 157.989 39.4985C157.989 39.364 157.993 39.2007 158.003 39.0086ZM161.619 30.0322C161.619 31.6556 161.932 32.8466 162.556 33.6055C163.19 34.3547 163.968 34.7293 164.89 34.7293C165.88 34.7293 166.715 34.3451 167.397 33.5767C168.079 32.7986 168.42 31.6508 168.42 30.1331C168.42 28.5482 168.094 27.3715 167.44 26.603C166.787 25.8346 165.961 25.4504 164.962 25.4504C163.992 25.4504 163.19 25.8298 162.556 26.5886C161.932 27.3379 161.619 28.4857 161.619 30.0322Z" fill="#023047"/>
</svg>
